<svg width="280" height="55" viewBox="0 0 280 55" fill="none" xmlns="http://www.w3.org/2000/svg">
<path d="M3.0517 0C1.67771 0 0.761719 0.915994 0.761719 2.28999V8.01495C0.761719 12.3659 4.4257 16.0299 8.77667 16.0299H25.0347C26.8666 16.0299 28.2415 17.4048 28.2415 19.2368V20.6099C28.2415 21.9839 29.1575 22.8999 30.5315 22.8999C31.9055 22.8999 32.8215 21.9839 32.8215 20.6099V19.2368C32.8215 17.4048 34.1964 16.0299 36.0284 16.0299H52.2864C56.6374 16.0299 60.3013 12.3659 60.3013 8.01495V2.28999C60.3013 0.915994 59.3853 0 58.0114 0C56.6374 0 55.7214 0.915994 55.7214 2.28999V3.66306C55.7214 5.49505 54.3465 6.86996 52.5145 6.86996H37.4015C33.5085 6.86996 30.5315 9.84694 30.5315 13.7399C30.5315 9.84694 27.5546 6.86996 23.6616 6.86996H8.54858C6.7166 6.86996 5.34169 5.49505 5.34169 3.66306V2.28999C5.34169 0.915994 4.4257 0 3.0517 0ZM17.5968 25.2525C17.1637 25.2919 16.7361 25.417 16.3355 25.646C14.7325 26.562 14.0418 28.623 14.9578 30.226L27.5527 53.1258C28.0107 54.2708 29.3865 54.9597 30.5315 54.9597C31.6765 54.9597 33.0523 54.2708 33.5103 53.1258L46.1053 30.226C47.0213 28.623 46.3306 26.562 44.7276 25.646C43.1246 24.73 41.0636 25.4207 40.1476 27.0237L30.5315 44.4266L20.9154 27.0237C20.2284 25.8213 18.8955 25.1343 17.5968 25.2525Z" fill="url(#paint0_linear_705_101942)"/>
<path d="M274.193 46.3833C272.738 46.3833 271.515 45.885 270.518 44.8884C269.562 43.8918 269.085 42.6877 269.085 41.2758C269.085 39.864 269.562 38.6806 270.518 37.7254C271.515 36.7288 272.738 36.2305 274.193 36.2305C275.563 36.2305 276.747 36.7288 277.743 37.7254C278.74 38.6806 279.238 39.864 279.238 41.2758C279.238 42.6877 278.74 43.8918 277.743 44.8884C276.747 45.885 275.563 46.3833 274.193 46.3833Z" fill="url(#paint1_linear_705_101942)"/>
<path d="M244.918 46.3195C242.843 46.3195 240.912 45.9874 239.126 45.3229C237.341 44.6171 235.784 43.6205 234.454 42.3331C233.168 41.0458 232.149 39.4679 231.402 37.5993C230.654 35.7306 230.281 33.6129 230.281 31.2459C230.281 28.8374 230.634 26.6782 231.34 24.768C232.087 22.8164 233.084 21.1761 234.329 19.8473C235.575 18.5186 237.03 17.5011 238.69 16.7952C240.393 16.0894 242.22 15.7363 244.171 15.7363C245.875 15.7363 247.472 16.0478 248.967 16.6706C250.504 17.2519 251.854 18.1448 253.016 19.349C254.221 20.5532 255.156 22.0481 255.819 23.8337C256.526 25.6194 256.878 27.6748 256.878 30.0002C256.878 30.4569 256.878 31.0175 256.878 31.682C256.878 32.3464 256.857 32.907 256.815 33.3637H237.942C238.026 34.5265 238.276 35.5438 238.69 36.4158C239.148 37.2463 239.708 37.9523 240.371 38.5336C241.079 39.0735 241.846 39.4886 242.676 39.7793C243.548 40.0285 244.42 40.1531 245.292 40.1531C246.164 40.1531 246.974 40.0908 247.721 39.9662C248.511 39.8 249.258 39.5302 249.964 39.1565C250.711 38.7827 251.418 38.2429 252.081 37.537L256.068 41.4611C255.113 42.5823 254.054 43.5166 252.891 44.2641C251.73 44.9699 250.462 45.4891 249.092 45.8212C247.763 46.1534 246.373 46.3195 244.918 46.3195ZM238.004 27.4464H249.279C249.279 26.5328 249.154 25.7231 248.905 25.0172C248.698 24.3113 248.344 23.7298 247.846 23.2731C247.39 22.8164 246.829 22.4841 246.164 22.2765C245.501 22.0274 244.731 21.9028 243.859 21.9028C243.112 21.9028 242.407 22.0067 241.742 22.2142C241.078 22.4218 240.476 22.7541 239.935 23.2108C239.437 23.6676 239.023 24.249 238.69 24.9549C238.358 25.6608 238.129 26.4914 238.004 27.4464Z" fill="#33383A"/>
<path d="M215.581 46.2563C214.004 46.2563 212.571 46.0071 211.283 45.5088C210.037 45.0105 208.979 44.1799 208.107 43.0173C207.277 41.813 206.654 40.2144 206.238 38.2212C205.824 36.228 205.677 33.7365 205.802 30.7467L206.674 9.69344L214.771 8.63455L215.332 8.57227L215.394 9.25743C215.229 9.54798 215.063 9.83872 214.896 10.1295C214.731 10.42 214.627 10.9183 214.584 11.6244L213.837 20.6561L214.211 20.9052L213.712 30.4352C213.588 32.9681 213.672 34.9406 213.962 36.3525C214.295 37.7229 214.771 38.6779 215.394 39.2178C216.017 39.7161 216.724 39.9652 217.512 39.9652C218.8 39.9652 219.963 39.6952 221 39.1555C222.081 38.6156 223.056 37.9927 223.928 37.2869L225.422 42.955C224.012 43.993 222.495 44.8028 220.875 45.3842C219.256 45.9655 217.492 46.2563 215.581 46.2563ZM200.383 16.4205H223.305L223.18 22.6493H200.258L200.383 16.4205Z" fill="#33383A"/>
<path d="M177.834 46.3195C174.68 46.3195 172.208 45.5721 170.422 44.0772C168.638 42.5407 167.744 40.5475 167.744 38.0976C167.744 36.5197 168.077 35.0871 168.74 33.7997C169.447 32.471 170.484 31.3082 171.855 30.3116C173.267 29.315 175.031 28.5469 177.149 28.007C179.267 27.4257 181.738 27.135 184.561 27.135C184.81 27.135 185.144 27.1557 185.558 27.1972C185.974 27.1972 186.43 27.1972 186.928 27.1972C187.427 27.1972 187.885 27.218 188.299 27.2595L188.485 32.6163C188.154 32.5747 187.718 32.554 187.177 32.554C186.679 32.554 186.161 32.554 185.62 32.554C185.082 32.554 184.646 32.554 184.312 32.554C182.568 32.554 181.135 32.6786 180.014 32.9277C178.935 33.1353 178.063 33.4467 177.398 33.862C176.775 34.2773 176.339 34.7548 176.09 35.2946C175.841 35.8345 175.716 36.4158 175.716 37.0387C175.716 37.5786 175.801 38.0769 175.966 38.5336C176.174 38.9489 176.444 39.281 176.775 39.5302C177.109 39.7378 177.503 39.9039 177.959 40.0285C178.457 40.1531 178.977 40.2154 179.516 40.2154C180.637 40.2154 181.614 40.0285 182.444 39.6548C183.275 39.281 183.96 38.6998 184.499 37.9107C185.082 37.0803 185.496 36.0421 185.745 34.7963C186.036 33.509 186.181 31.9934 186.181 30.2493C186.181 27.9654 185.954 26.2214 185.496 25.0172C185.039 23.813 184.396 22.9824 183.565 22.5257C182.735 22.069 181.696 21.8405 180.45 21.8405C179.164 21.8405 177.939 22.0481 176.775 22.4634C175.654 22.8371 174.513 23.6262 173.35 24.8303L168.927 20.1588C170.671 18.5393 172.562 17.3974 174.595 16.7329C176.673 16.0685 178.728 15.7363 180.762 15.7363C182.548 15.7363 184.23 15.9439 185.807 16.3592C187.427 16.7745 188.839 17.4597 190.043 18.4147C191.288 19.3283 192.265 20.6155 192.97 22.2765C193.677 23.896 194.029 25.9308 194.029 28.3807V45.5721H185.932V42.8314C185.393 43.4543 184.832 43.9942 184.25 44.4509C183.711 44.9076 183.109 45.2814 182.444 45.5721C181.78 45.8212 181.073 46.0081 180.326 46.1327C179.578 46.2573 178.748 46.3195 177.834 46.3195Z" fill="#33383A"/>
<path d="M151.487 46.3195C149.411 46.3195 147.48 45.9874 145.694 45.3229C143.909 44.6171 142.352 43.6205 141.023 42.3331C139.736 41.0458 138.718 39.4679 137.971 37.5993C137.223 35.7306 136.85 33.6129 136.85 31.2459C136.85 28.8374 137.202 26.6782 137.908 24.768C138.656 22.8164 139.653 21.1761 140.898 19.8473C142.144 18.5186 143.597 17.5011 145.258 16.7952C146.961 16.0894 148.788 15.7363 150.74 15.7363C152.442 15.7363 154.041 16.0478 155.536 16.6706C157.072 17.2519 158.422 18.1448 159.585 19.349C160.789 20.5532 161.723 22.0481 162.388 23.8337C163.094 25.6194 163.446 27.6748 163.446 30.0002C163.446 30.4569 163.446 31.0175 163.446 31.682C163.446 32.3464 163.426 32.907 163.384 33.3637H144.511C144.594 34.5265 144.843 35.5438 145.258 36.4158C145.715 37.2463 146.276 37.9523 146.94 38.5336C147.646 39.0735 148.414 39.4886 149.245 39.7793C150.117 40.0285 150.989 40.1531 151.861 40.1531C152.733 40.1531 153.543 40.0908 154.29 39.9662C155.079 39.8 155.826 39.5302 156.532 39.1565C157.28 38.7827 157.986 38.2429 158.65 37.537L162.636 41.4611C161.682 42.5823 160.623 43.5166 159.46 44.2641C158.297 44.9699 157.031 45.4891 155.66 45.8212C154.332 46.1534 152.941 46.3195 151.487 46.3195ZM144.573 27.4464H155.847C155.847 26.5328 155.723 25.7231 155.474 25.0172C155.266 24.3113 154.913 23.7298 154.415 23.2731C153.958 22.8164 153.397 22.4841 152.733 22.2765C152.068 22.0274 151.3 21.9028 150.428 21.9028C149.681 21.9028 148.975 22.0067 148.311 22.2142C147.646 22.4218 147.044 22.7541 146.504 23.2108C146.006 23.6676 145.591 24.249 145.258 24.9549C144.926 25.6608 144.698 26.4914 144.573 27.4464Z" fill="#33383A"/>
<path d="M108.446 16.4215H116.606L116.544 24.5189L115.672 24.0829C115.796 22.8371 116.128 21.7159 116.668 20.7193C117.208 19.6812 117.893 18.7884 118.724 18.041C119.596 17.2935 120.53 16.7329 121.527 16.3592C122.565 15.9439 123.624 15.7363 124.703 15.7363C126.364 15.7363 127.859 16.0062 129.188 16.5461C130.517 17.086 131.742 17.9371 132.863 19.0999L129.562 25.8269L129.375 26.3252L128.752 26.0761C128.627 25.7439 128.503 25.3909 128.378 25.0172C128.295 24.6435 128.025 24.2074 127.569 23.7091C126.987 23.2938 126.364 22.941 125.7 22.6503C125.036 22.3595 124.309 22.2142 123.52 22.2142C122.523 22.2142 121.589 22.3804 120.717 22.7125C119.886 23.0033 119.16 23.4807 118.537 24.1452C117.914 24.8096 117.416 25.6608 117.042 26.6989C116.668 27.6956 116.481 28.9206 116.481 30.3739V45.5721H108.446V16.4215Z" fill="#33383A"/>
<path d="M89.5726 46.3195C87.4548 46.3195 85.4616 45.9665 83.593 45.2607C81.766 44.5132 80.1672 43.475 78.7969 42.1463C77.4265 40.7759 76.3677 39.1772 75.6202 37.3501C74.8727 35.5231 74.499 33.509 74.499 31.3082C74.499 29.1489 74.8727 27.135 75.6202 25.2663C76.3677 23.3561 77.4265 21.6952 78.7969 20.2833C80.1672 18.8714 81.766 17.7711 83.593 16.9821C85.4616 16.1516 87.4755 15.7363 89.6349 15.7363C92.4172 15.7363 94.8255 16.2346 96.8603 17.2312C98.8951 18.2278 100.515 19.6397 101.719 21.4668L97.4209 26.2006L96.9849 26.6367L96.4865 26.2629C96.445 25.9308 96.3827 25.5985 96.2997 25.2663C96.2581 24.8926 96.0298 24.4359 95.6145 23.896C94.8671 23.1486 94.0157 22.6503 93.0607 22.4011C92.1471 22.1104 91.0882 21.9651 89.8841 21.9651C88.8875 21.9651 87.9531 22.1727 87.0811 22.588C86.2091 23.0033 85.4201 23.6053 84.7142 24.3943C84.0083 25.1833 83.4477 26.1591 83.0324 27.3218C82.6587 28.4846 82.4718 29.834 82.4718 31.3705C82.4718 32.6993 82.6794 33.9243 83.0947 35.0455C83.51 36.1251 84.0497 37.0387 84.7142 37.7861C85.4201 38.492 86.2091 39.0526 87.0811 39.4679C87.9947 39.8416 88.929 40.0285 89.8841 40.0285C90.7561 40.0285 91.5865 39.9246 92.3756 39.7171C93.206 39.4679 94.0157 39.0942 94.8048 38.5959C95.6352 38.056 96.4243 37.3294 97.1717 36.4158L101.47 41.3988C99.8917 43.1429 98.023 44.4093 95.8637 45.1984C93.7459 45.9458 91.6488 46.3195 89.5726 46.3195Z" fill="#33383A"/>
<defs>
<linearGradient id="paint0_linear_705_101942" x1="0.761719" y1="33.5254" x2="60.3013" y2="33.5254" gradientUnits="userSpaceOnUse">
<stop stop-color="#1A81FA"/>
<stop offset="1" stop-color="#8854FC"/>
</linearGradient>
<linearGradient id="paint1_linear_705_101942" x1="269.085" y1="42.4239" x2="279.238" y2="42.4239" gradientUnits="userSpaceOnUse">
<stop stop-color="#1A81FA"/>
<stop offset="1" stop-color="#8854FC"/>
</linearGradient>
</defs>
</svg>
